<?xml version="1.0" encoding="UTF-8"?>
<svg width="60px" height="60px" viewBox="0 0 60 60" version="1.1" xmlns="http://www.w3.org/2000/svg" xmlns:xlink="http://www.w3.org/1999/xlink">
    <title>BNP@1x</title>
    <defs>
        <rect id="path-1" x="0" y="0" width="60" height="60"></rect>
    </defs>
    <g id="页面-1" stroke="none" stroke-width="1" fill="none" fill-rule="evenodd">
        <g id="Menu" transform="translate(-260.000000, -581.000000)">
            <g id="BNP-2" transform="translate(260.000000, 581.000000)">
                <g id="BNP">
                    <mask id="mask-2" fill="white">
                        <use xlink:href="#path-1"></use>
                    </mask>
                    <g id="蒙版"></g>
                    <path d="M19.569,25.1087864 L19.5697674,38.8648562 L19.72,38.8647864 L19.7209302,39.016019 L33.476,39.0157864 L33.4768914,53.7499906 C32.341727,53.9147227 31.1808223,54 30,54 C16.745166,54 6,43.254834 6,30 C6,28.3242355 6.17174753,26.6885848 6.49860058,25.1096899 L19.569,25.1087864 Z M40.43,39.0157864 L52.2485457,39.0170347 C50.0077118,44.5405846 45.7696563,49.0406003 40.4303666,51.6210945 L40.43,39.0157864 Z M30,6 C43.254834,6 54,16.745166 54,30 C54,30.6948539 53.9704708,31.3828109 53.9125989,32.0626846 L40.43,32.0617864 L40.4302326,18.3067167 L40.279,18.3057864 L40.2790698,18.1555539 L26.523,18.1547864 L26.5231086,6.25000936 C27.658273,6.08527734 28.8191777,6 30,6 Z M33.476,25.1087864 L33.476,32.0617864 L26.523,32.0617864 L26.523,25.1087864 L33.476,25.1087864 Z M19.5696334,8.37890548 L19.569,18.1547864 L9.12188132,18.1549965 C11.5248332,13.9286369 15.1740566,10.5033005 19.5696334,8.37890548 Z" id="形状结合" fill="#F4BD00" mask="url(#mask-2)" transform="translate(30.000000, 30.000000) rotate(45.000000) translate(-30.000000, -30.000000) "></path>
                </g>
            </g>
        </g>
    </g>
</svg>