<?xml version="1.0" encoding="UTF-8"?>
<svg width="40px" height="40px" viewBox="0 0 40 40" version="1.1" xmlns="http://www.w3.org/2000/svg" xmlns:xlink="http://www.w3.org/1999/xlink">
    <title>BNP@1x</title>
    <defs>
        <rect id="path-1" x="0" y="0" width="40" height="40"></rect>
    </defs>
    <g id="页面-1" stroke="none" stroke-width="1" fill="none" fill-rule="evenodd">
        <g id="Menu状态" transform="translate(-327.000000, -589.000000)">
            <g id="编组-6" transform="translate(327.000000, 587.000000)">
                <g id="编组备份-3">
                    <g id="BNP-2" transform="translate(0.000000, 2.000000)">
                        <g id="BNP">
                            <mask id="mask-2" fill="white">
                                <use xlink:href="#path-1"></use>
                            </mask>
                            <g id="蒙版"></g>
                            <path d="M0.319998718,16.4172721 L11.374,16.4178932 L11.375,27.7928932 L11.499,27.7918932 L11.5,27.9178932 L22.874,27.9178932 L22.8750628,39.7948889 C21.9362052,39.9300501 20.9762714,40 20,40 C8.954305,40 -2.62900812e-12,31.045695 -2.62900812e-12,20 C-2.62900812e-12,18.7770138 0.10977132,17.5796661 0.319998718,16.4172721 Z M38.3713711,27.9181441 C36.4546674,32.3592359 32.974725,35.9675835 28.6248812,38.0498495 L28.624,27.9178932 Z M20,2.93098879e-12 C31.045695,2.93098879e-12 40,8.954305 40,20 C40,20.7324759 39.9606239,21.455755 39.8838731,22.167836 L28.624,22.1678932 L28.625,10.7928932 L28.5,10.7918932 L28.5,10.6678932 L17.124,10.6678932 L17.1239374,0.205255088 C18.0631133,0.0699995467 19.023382,2.93098879e-12 20,2.93098879e-12 Z M22.874,16.4178932 L22.874,22.1678932 L17.124,22.1678932 L17.124,16.4178932 L22.874,16.4178932 Z M11.3741193,1.95062903 L11.374,10.6678932 L2.30642568,10.6673576 C4.31011056,6.87646576 7.49641897,3.80714569 11.3741193,1.95062903 Z" id="形状结合" fill="#FFFFFF" mask="url(#mask-2)" transform="translate(20.000000, 20.000000) rotate(45.000000) translate(-20.000000, -20.000000) "></path>
                        </g>
                    </g>
                </g>
            </g>
        </g>
    </g>
</svg>