<?xml version="1.0" encoding="UTF-8"?>
<svg width="117px" height="117px" viewBox="0 0 117 117" version="1.1" xmlns="http://www.w3.org/2000/svg" xmlns:xlink="http://www.w3.org/1999/xlink">
    <title>logo黑@1x</title>
    <g id="新版本" stroke="none" stroke-width="1" fill="none" fill-rule="evenodd">
        <g id="logo黑" fill="#FFFFFF" fill-rule="nonzero">
            <path d="M116.966343,61.0009144 C115.655847,92.1494973 89.9809316,117 58.5,117 C27.0190684,117 1.34415325,92.1494973 0.033656555,61.0009144 L30.585,61 L54.9638965,85.3706274 C56.8583259,87.2622369 59.8917705,87.3195584 61.8552312,85.5425919 L62.0361035,85.3706274 L86.414,61 L116.966343,61.0009144 Z M58.5,0 C90.3175216,0 116.204209,25.3847401 117,57.0003323 L87.415,57.0003323 L62.0361035,31.6293726 C60.1416741,29.7377631 57.1082295,29.6804416 55.1447688,31.4574081 L54.9638965,31.6293726 L29.584,57.0003323 L-2.84217094e-13,57.0003323 C0.795791432,25.3847401 26.6824784,0 58.5,0 Z" id="形状结合备份"></path>
            <rect id="矩形备份" transform="translate(58.500000, 58.500000) rotate(45.000000) translate(-58.500000, -58.500000) " x="50" y="50" width="17" height="17"></rect>
        </g>
    </g>
</svg>