<?xml version="1.0" encoding="UTF-8"?>
<svg width="365px" height="271px" viewBox="0 0 365 271" version="1.1" xmlns="http://www.w3.org/2000/svg" xmlns:xlink="http://www.w3.org/1999/xlink">
    <title>形状结合备份@1x</title>
    <g id="页面-1" stroke="none" stroke-width="1" fill="none" fill-rule="evenodd" opacity="0.132765997">
        <g id="Menu备份" transform="translate(-505.000000, -602.000000)" fill="#FFFFFF">
            <g id="背景" transform="translate(-29.000000, 461.000000)">
                <g id="logo虚化">
                    <g>
                        <g transform="translate(459.000000, 66.000000)" id="形状结合备份">
                            <path d="M78.3189456,225.071914 L179.419211,225.071961 L179.420166,328.046992 L180.551211,328.046961 L180.551758,329.178584 L283.526211,329.177961 L283.52839,437.713999 C275.027601,438.930892 266.337332,439.560547 257.5,439.560547 C156.950736,439.560547 75.4394531,358.049264 75.4394531,257.5 C75.4394531,246.432198 76.4270568,235.595063 78.3189456,225.071914 Z M335.579211,329.177961 L424.906241,329.181216 C407.432048,369.937564 375.509589,403.029411 335.581902,422.013718 L335.579211,329.177961 Z M257.5,75.4394531 C358.049264,75.4394531 439.560547,156.950736 439.560547,257.5 C439.560547,264.130974 439.206048,270.67915 438.514969,277.12661 L335.579211,277.124961 L335.579834,174.150508 L334.448211,174.149961 L334.448242,173.018916 L231.473211,173.017961 L231.47161,77.2860014 C239.972399,76.0691076 248.662668,75.4394531 257.5,75.4394531 Z M283.526211,225.071961 L283.526211,277.124961 L231.473211,277.124961 L231.473211,225.071961 L283.526211,225.071961 Z M179.418098,92.9862821 L179.419211,173.017961 L96.1865412,173.016278 C114.485896,138.147225 143.759559,109.940749 179.418098,92.9862821 Z" transform="translate(257.500000, 257.500000) rotate(45.000000) translate(-257.500000, -257.500000) "></path>
                        </g>
                    </g>
                </g>
            </g>
        </g>
    </g>
</svg>